<svg width="37" height="41" viewBox="0 0 37 41" fill="none" xmlns="http://www.w3.org/2000/svg">
<g id="task">
<mask id="mask0_311_883" style="mask-type:alpha" maskUnits="userSpaceOnUse" x="0" y="0" width="37" height="41">
<rect id="Bounding box" width="37" height="41" fill="#D9D9D9"/>
</mask>
<g mask="url(#mask0_311_883)">
<path id="task_2" d="M6.75114 40.0817C5.67406 40.0817 4.75201 39.6982 3.98499 38.9312C3.21798 38.1642 2.83447 37.2421 2.83447 36.165V4.83171C2.83447 3.75462 3.21798 2.83257 3.98499 2.06556C4.75201 1.29855 5.67406 0.915039 6.75114 0.915039H20.8022C21.3244 0.915039 21.8221 1.01296 22.2954 1.20879C22.7687 1.40462 23.1848 1.68205 23.5438 2.04108L33.0418 11.539C33.4008 11.898 33.6782 12.3142 33.8741 12.7874C34.0699 13.2607 34.1678 13.7584 34.1678 14.2807V36.165C34.1678 37.2421 33.7843 38.1642 33.0173 38.9312C32.2503 39.6982 31.3282 40.0817 30.2511 40.0817H6.75114ZM20.4595 12.665C20.4595 13.2199 20.6471 13.685 21.0225 14.0604C21.3978 14.4357 21.8629 14.6234 22.4178 14.6234H30.2511L20.4595 4.83171V12.665ZM16.3959 26.6182L13.6543 23.8765C13.4584 23.6807 13.2463 23.5338 13.0178 23.4359C12.7893 23.338 12.5527 23.289 12.3079 23.289C12.0631 23.289 11.8183 23.338 11.5735 23.4359C11.3287 23.5338 11.1084 23.6807 10.9126 23.8765C10.5209 24.2682 10.3251 24.7333 10.3251 25.2718C10.3251 25.8104 10.5209 26.2755 10.9126 26.6671L15.0741 30.8775C15.2699 31.0734 15.482 31.2121 15.7105 31.2937C15.939 31.3753 16.1838 31.4161 16.4449 31.4161C16.706 31.4161 16.9508 31.3753 17.1793 31.2937C17.4077 31.2121 17.6199 31.0734 17.8157 30.8775L26.0897 22.6036C26.4813 22.2119 26.6772 21.7387 26.6772 21.1838C26.6772 20.6289 26.4813 20.1557 26.0897 19.764C25.698 19.3723 25.2248 19.1765 24.6699 19.1765C24.115 19.1765 23.6418 19.3723 23.2501 19.764L16.3959 26.6182Z" fill="#D3D5D4"/>
</g>
</g>
</svg>
