<svg width="38" height="43" viewBox="0 0 38 43" fill="none" xmlns="http://www.w3.org/2000/svg">
<g id="fact_check">
<mask id="mask0_311_880" style="mask-type:alpha" maskUnits="userSpaceOnUse" x="0" y="0" width="38" height="43">
<rect id="Bounding box" width="38" height="43" fill="#D9D9D9"/>
</mask>
<g mask="url(#mask0_311_880)">
<path id="fact_check_2" d="M6.33464 37.625C5.4638 37.625 4.71832 37.2741 4.09818 36.5724C3.47804 35.8707 3.16797 35.0271 3.16797 34.0417V8.95833C3.16797 7.97292 3.47804 7.12934 4.09818 6.4276C4.71832 5.72587 5.4638 5.375 6.33464 5.375H31.668C32.5388 5.375 33.2843 5.72587 33.9044 6.4276C34.5246 7.12934 34.8346 7.97292 34.8346 8.95833V34.0417C34.8346 35.0271 34.5246 35.8707 33.9044 36.5724C33.2843 37.2741 32.5388 37.625 31.668 37.625H6.33464ZM14.2513 30.4583C14.6999 30.4583 15.076 30.2866 15.3794 29.9432C15.6829 29.5998 15.8346 29.1743 15.8346 28.6667C15.8346 28.159 15.6829 27.7335 15.3794 27.3901C15.076 27.0467 14.6999 26.875 14.2513 26.875H9.5013C9.05269 26.875 8.67665 27.0467 8.37318 27.3901C8.06971 27.7335 7.91797 28.159 7.91797 28.6667C7.91797 29.1743 8.06971 29.5998 8.37318 29.9432C8.67665 30.2866 9.05269 30.4583 9.5013 30.4583H14.2513ZM23.0388 21.8135L21.8909 20.5146C21.5742 20.1562 21.2048 19.9845 20.7826 19.9995C20.3603 20.0144 19.9909 20.201 19.6742 20.5594C19.3839 20.9177 19.2322 21.3358 19.219 21.8135C19.2058 22.2913 19.3576 22.7094 19.6742 23.0677L21.9305 25.6208C22.2471 25.9792 22.6166 26.1583 23.0388 26.1583C23.461 26.1583 23.8305 25.9792 24.1471 25.6208L29.768 19.2604C30.0846 18.9021 30.243 18.484 30.243 18.0063C30.243 17.5285 30.0846 17.1104 29.768 16.7521C29.4513 16.3937 29.0753 16.2146 28.6398 16.2146C28.2044 16.2146 27.8284 16.3937 27.5117 16.7521L23.0388 21.8135ZM14.2513 23.2917C14.6999 23.2917 15.076 23.12 15.3794 22.7766C15.6829 22.4332 15.8346 22.0076 15.8346 21.5C15.8346 20.9924 15.6829 20.5668 15.3794 20.2234C15.076 19.88 14.6999 19.7083 14.2513 19.7083H9.5013C9.05269 19.7083 8.67665 19.88 8.37318 20.2234C8.06971 20.5668 7.91797 20.9924 7.91797 21.5C7.91797 22.0076 8.06971 22.4332 8.37318 22.7766C8.67665 23.12 9.05269 23.2917 9.5013 23.2917H14.2513ZM14.2513 16.125C14.6999 16.125 15.076 15.9533 15.3794 15.6099C15.6829 15.2665 15.8346 14.841 15.8346 14.3333C15.8346 13.8257 15.6829 13.4002 15.3794 13.0568C15.076 12.7134 14.6999 12.5417 14.2513 12.5417H9.5013C9.05269 12.5417 8.67665 12.7134 8.37318 13.0568C8.06971 13.4002 7.91797 13.8257 7.91797 14.3333C7.91797 14.841 8.06971 15.2665 8.37318 15.6099C8.67665 15.9533 9.05269 16.125 9.5013 16.125H14.2513Z" fill="#D3D5D4"/>
</g>
</g>
</svg>
