<svg width="37" height="33" viewBox="0 0 37 33" fill="none" xmlns="http://www.w3.org/2000/svg">
<g id="forum">
<mask id="mask0_311_886" style="mask-type:alpha" maskUnits="userSpaceOnUse" x="0" y="0" width="37" height="33">
<rect id="Bounding box" width="37" height="33" transform="matrix(-1 0 0 1 37 0)" fill="#D9D9D9"/>
</mask>
<g mask="url(#mask0_311_886)">
<path id="forum_2" d="M27.7485 27.9987C28.2444 27.9987 28.66 27.839 28.9954 27.5195C29.3308 27.2001 29.4985 26.8043 29.4985 26.332V22.9987H6.74854V7.9987H3.24854C2.7527 7.9987 2.33708 8.15842 2.00166 8.47786C1.66624 8.79731 1.49854 9.19314 1.49854 9.66536V30.6237C1.49854 31.3737 1.85583 31.8945 2.57041 32.1862C3.28499 32.4779 3.91937 32.3598 4.47353 31.832L8.49854 27.9987H27.7485ZM29.4985 19.6654L33.5235 23.4987C34.0777 24.0265 34.7121 24.1445 35.4267 23.8529C36.1412 23.5612 36.4985 23.0404 36.4985 22.2904V2.9987C36.4985 2.52648 36.3308 2.13064 35.9954 1.8112C35.66 1.49175 35.2444 1.33203 34.7485 1.33203H11.9985C11.5027 1.33203 11.0871 1.49175 10.7517 1.8112C10.4162 2.13064 10.2485 2.52648 10.2485 2.9987V17.9987C10.2485 18.4709 10.4162 18.8668 10.7517 19.1862C11.0871 19.5056 11.5027 19.6654 11.9985 19.6654H29.4985Z" fill="#D3D5D4"/>
</g>
</g>
</svg>
