<svg width="44" height="38" viewBox="0 0 44 38" fill="none" xmlns="http://www.w3.org/2000/svg">
<g id="groups_2">
<mask id="mask0_311_871" style="mask-type:alpha" maskUnits="userSpaceOnUse" x="0" y="0" width="44" height="38">
<rect id="Bounding box" width="44" height="38" fill="#D9D9D9"/>
</mask>
<g mask="url(#mask0_311_871)">
<path id="groups_2_2" d="M18.8375 20C17.9819 20 17.2792 19.5479 16.7292 18.6437C16.1792 17.7396 15.9806 16.6847 16.1333 15.4792L16.6833 10.8292C16.9278 8.97778 17.5465 7.46007 18.5396 6.27604C19.5326 5.09201 20.6861 4.5 22 4.5C23.3444 4.5 24.5132 5.09201 25.5063 6.27604C26.4993 7.46007 27.1181 8.97778 27.3625 10.8292L27.9125 15.4792C28.0653 16.6847 27.8667 17.7396 27.3167 18.6437C26.7667 19.5479 26.0639 20 25.2083 20H18.8375ZM19.9375 14.8333H24.1083L23.7417 11.6688C23.6806 11.066 23.4819 10.5816 23.1458 10.2156C22.8097 9.84965 22.4278 9.66667 22 9.66667C21.5722 9.66667 21.1979 9.84965 20.8771 10.2156C20.5563 10.5816 20.3653 11.066 20.3042 11.6688L19.9375 14.8333ZM5.68333 22.5187C4.98056 22.5618 4.37708 22.3681 3.87292 21.9375C3.36875 21.5069 3.04028 20.8396 2.8875 19.9354C2.82639 19.5479 2.81111 19.1604 2.84167 18.7729C2.87222 18.3854 2.94861 18.0194 3.07083 17.675C3.07083 17.7181 3.05556 17.6319 3.025 17.4167C2.96389 17.3306 2.81111 16.8139 2.56667 15.8667C2.50556 15.35 2.55139 14.8549 2.70417 14.3812C2.85694 13.9076 3.05556 13.4986 3.3 13.1542L3.39167 13.025C3.45278 12.2069 3.68958 11.5181 4.10208 10.9583C4.51458 10.3986 5.02639 10.1187 5.6375 10.1187C5.72917 10.1187 6.01944 10.2049 6.50833 10.3771L6.64583 10.3125C6.79861 10.0972 6.99722 9.93576 7.24167 9.82812C7.48611 9.72049 7.74583 9.66667 8.02083 9.66667C8.35694 9.66667 8.65486 9.74201 8.91458 9.89271C9.17431 10.0434 9.38056 10.2694 9.53333 10.5708C9.56389 10.5708 9.58681 10.5816 9.60208 10.6031C9.61736 10.6247 9.64028 10.6354 9.67083 10.6354C10.0986 10.6785 10.4729 10.8615 10.7938 11.1844C11.1146 11.5073 11.3514 11.9486 11.5042 12.5083C11.5653 12.8097 11.5882 13.1003 11.5729 13.3802C11.5576 13.6601 11.5194 13.9292 11.4583 14.1875C11.4583 14.2306 11.4736 14.3167 11.5042 14.4458C11.7181 14.7472 11.8861 15.0809 12.0083 15.4469C12.1306 15.8128 12.1917 16.1896 12.1917 16.5771C12.1917 16.7493 12.1 17.2014 11.9167 17.9333C11.8861 18.0194 11.8861 18.1056 11.9167 18.1917L12.0083 19.225C12.0083 20.1292 11.741 20.9042 11.2063 21.55C10.6715 22.1958 10.0222 22.5187 9.25833 22.5187H5.68333ZM36.6667 22.5833C35.6583 22.5833 34.7951 22.0774 34.0771 21.0656C33.359 20.0538 33 18.8375 33 17.4167C33 16.9 33.0535 16.4156 33.1604 15.9635C33.2674 15.5115 33.4125 15.0701 33.5958 14.6396L32.3125 13.025C32.0069 12.6806 31.9535 12.25 32.1521 11.7333C32.3507 11.2167 32.6333 10.9583 33 10.9583H36.6667C37.675 10.9583 38.5382 11.4642 39.2563 12.476C39.9743 13.4878 40.3333 14.7042 40.3333 16.125V17.4167C40.3333 18.8375 39.9743 20.0538 39.2563 21.0656C38.5382 22.0774 37.675 22.5833 36.6667 22.5833ZM0 32.9167V31.4312C0 29.5368 0.679861 28.0191 2.03958 26.8781C3.39931 25.7372 5.16389 25.1667 7.33333 25.1667C7.73056 25.1667 8.1125 25.1774 8.47917 25.199C8.84583 25.2205 9.19722 25.2743 9.53333 25.3604C9.10556 26.2215 8.78472 27.1472 8.57083 28.1375C8.35694 29.1278 8.25 30.1826 8.25 31.3021V35.5H1.83333C1.31389 35.5 0.878472 35.2524 0.527083 34.7573C0.175694 34.2622 0 33.6486 0 32.9167ZM11 32.9167V31.3021C11 28.5035 12.016 26.2431 14.0479 24.5208C16.0799 22.7986 18.7306 21.9375 22 21.9375C25.3 21.9375 27.9583 22.7986 29.975 24.5208C31.9917 26.2431 33 28.5035 33 31.3021V32.9167C33 33.6486 32.8243 34.2622 32.4729 34.7573C32.1215 35.2524 31.6861 35.5 31.1667 35.5H12.8333C12.3139 35.5 11.8785 35.2524 11.5271 34.7573C11.1757 34.2622 11 33.6486 11 32.9167ZM36.6667 25.1667C38.8667 25.1667 40.6389 25.7372 41.9833 26.8781C43.3278 28.0191 44 29.5368 44 31.4312V32.9167C44 33.6486 43.8243 34.2622 43.4729 34.7573C43.1215 35.2524 42.6861 35.5 42.1667 35.5H35.75V31.3021C35.75 30.1826 35.6507 29.1278 35.4521 28.1375C35.2535 27.1472 34.9556 26.2215 34.5583 25.3604C34.8944 25.2743 35.2382 25.2205 35.5896 25.199C35.941 25.1774 36.3 25.1667 36.6667 25.1667ZM19.9375 14.8333L20.3042 11.6688C20.3653 11.066 20.5563 10.5816 20.8771 10.2156C21.1979 9.84965 21.5722 9.66667 22 9.66667C22.4278 9.66667 22.8097 9.84965 23.1458 10.2156C23.4819 10.5816 23.6806 11.066 23.7417 11.6688L24.1083 14.8333H19.9375Z" fill="#D3D5D4"/>
</g>
</g>
</svg>
