<svg width="25" height="23" viewBox="0 0 25 23" fill="none" xmlns="http://www.w3.org/2000/svg">
<g id="house">
<mask id="mask0_311_897" style="mask-type:alpha" maskUnits="userSpaceOnUse" x="0" y="0" width="25" height="23">
<rect id="Bounding box" width="25" height="23" fill="#D9D9D9"/>
</mask>
<g mask="url(#mask0_311_897)">
<path id="house_2" d="M11.2183 22.5192H4.80809C4.44484 22.5192 4.14036 22.3929 3.89463 22.1403C3.6489 21.8878 3.52604 21.5748 3.52604 21.2015V11.9775H1.34655C1.04741 11.9775 0.844418 11.8348 0.73758 11.5493C0.630743 11.2637 0.694845 11.0222 0.929888 10.8245L11.635 0.908757C11.8701 0.667177 12.1585 0.546387 12.5004 0.546387C12.8423 0.546387 13.1307 0.667177 13.3658 0.908757L17.6286 4.86188V2.09469C17.6286 1.919 17.6927 1.76527 17.8209 1.6335C17.9491 1.50173 18.0987 1.43584 18.2696 1.43584H20.8337C21.0047 1.43584 21.1542 1.50173 21.2825 1.6335C21.4107 1.76527 21.4748 1.919 21.4748 2.09469V8.41969L24.0709 10.8245C24.306 11.0222 24.3701 11.2637 24.2632 11.5493C24.1564 11.8348 23.9534 11.9775 23.6542 11.9775H21.4748V21.2015C21.4748 21.5748 21.3519 21.8878 21.1062 22.1403C20.8604 22.3929 20.556 22.5192 20.1927 22.5192H13.7825V14.6129H11.2183V22.5192ZM6.09014 19.8838H8.65425V11.9775H16.3466V19.8838H18.9107V9.60563L12.5004 3.67594L6.09014 9.60563V19.8838ZM9.9363 9.37503H15.0645C15.0645 8.67226 14.8081 8.09576 14.2953 7.64554C13.7825 7.19532 13.1842 6.97022 12.5004 6.97022C11.8166 6.97022 11.2183 7.19532 10.7055 7.64554C10.1927 8.09576 9.9363 8.67226 9.9363 9.37503Z" fill="#2999C7"/>
</g>
</g>
</svg>
