<svg width="24" height="24" viewBox="0 0 24 24" fill="none" xmlns="http://www.w3.org/2000/svg">
<g id="Hourglass">
<path id="Vector" d="M6 0.75C5.60218 0.75 5.22064 0.908035 4.93934 1.18934C4.65804 1.47064 4.5 1.85218 4.5 2.25V4.617C4.5 6.60612 5.29018 8.51378 6.6967 9.9203C8.10322 11.3268 10.0109 12.117 12 12.117C13.9891 12.117 15.8968 11.3268 17.3033 9.9203C18.7098 8.51378 19.5 6.60612 19.5 4.617V2.25C19.5 1.85218 19.342 1.47064 19.0607 1.18934C18.7794 0.908035 18.3978 0.75 18 0.75H6Z" stroke="white" stroke-width="1.5" stroke-linecap="round" stroke-linejoin="round"/>
<path id="Vector_2" d="M6 23.2498C5.60218 23.2498 5.22064 23.0918 4.93934 22.8105C4.65804 22.5292 4.5 22.1476 4.5 21.7498V19.3828C4.5 17.3937 5.29018 15.486 6.6967 14.0795C8.10322 12.673 10.0109 11.8828 12 11.8828C13.9891 11.8828 15.8968 12.673 17.3033 14.0795C18.7098 15.486 19.5 17.3937 19.5 19.3828V21.7498C19.5 22.1476 19.342 22.5292 19.0607 22.8105C18.7794 23.0918 18.3978 23.2498 18 23.2498H6Z" stroke="white" stroke-width="1.5" stroke-linecap="round" stroke-linejoin="round"/>
<path id="Vector_3" d="M5.47705 8.25H18.5231" stroke="white" stroke-width="1.5" stroke-linecap="round" stroke-linejoin="round"/>
<path id="Vector_4" d="M18.5481 23.147C17.2641 20.451 14.8131 18 12.0001 18C9.18715 18 6.73615 20.451 5.45215 23.147" stroke="white" stroke-width="1.5" stroke-linecap="round" stroke-linejoin="round"/>
</g>
</svg>
