<svg width="40" height="41" viewBox="0 0 40 41" fill="none" xmlns="http://www.w3.org/2000/svg">
<g id="settings">
<mask id="mask0_311_893" style="mask-type:alpha" maskUnits="userSpaceOnUse" x="0" y="0" width="40" height="41">
<rect id="Bounding box" width="40" height="41" fill="#D9D9D9"/>
</mask>
<g mask="url(#mask0_311_893)">
<path id="settings_2" d="M16.4053 40.0837C15.9262 40.0837 15.5109 39.9205 15.1595 39.5941C14.8081 39.2677 14.6005 38.8597 14.5366 38.3701L13.9616 33.817C13.5463 33.6538 13.155 33.458 12.7876 33.2295C12.4203 33.001 12.0609 32.7562 11.7095 32.4951L7.54077 34.2576C7.09354 34.4535 6.64632 34.4779 6.1991 34.3311C5.75188 34.1842 5.40049 33.8986 5.14493 33.4743L1.5991 27.1587C1.34354 26.7344 1.26368 26.2774 1.35952 25.7878C1.45535 25.2982 1.69493 24.9066 2.07827 24.6128L5.67202 21.8222C5.64007 21.5937 5.6241 21.3734 5.6241 21.1613V19.8394C5.6241 19.6272 5.64007 19.4069 5.67202 19.1785L2.07827 16.3878C1.69493 16.0941 1.45535 15.7024 1.35952 15.2128C1.26368 14.7232 1.34354 14.2663 1.5991 13.842L5.14493 7.52637C5.40049 7.10206 5.75188 6.81647 6.1991 6.6696C6.64632 6.52272 7.09354 6.5472 7.54077 6.74303L11.7095 8.50553C12.0609 8.24442 12.4283 7.99963 12.8116 7.77116C13.1949 7.54269 13.5783 7.34685 13.9616 7.18366L14.5366 2.63053C14.6005 2.14095 14.8081 1.73296 15.1595 1.40658C15.5109 1.08019 15.9262 0.916992 16.4053 0.916992H23.5928C24.072 0.916992 24.4873 1.08019 24.8387 1.40658C25.1901 1.73296 25.3977 2.14095 25.4616 2.63053L26.0366 7.18366C26.4519 7.34685 26.8432 7.54269 27.2106 7.77116C27.5779 7.99963 27.9373 8.24442 28.2887 8.50553L32.4574 6.74303C32.9047 6.5472 33.3519 6.52272 33.7991 6.6696C34.2463 6.81647 34.5977 7.10206 34.8533 7.52637L38.3991 13.842C38.6547 14.2663 38.7345 14.7232 38.6387 15.2128C38.5428 15.7024 38.3033 16.0941 37.9199 16.3878L34.3262 19.1785C34.3581 19.4069 34.3741 19.6272 34.3741 19.8394V21.1613C34.3741 21.3734 34.3422 21.5937 34.2783 21.8222L37.872 24.6128C38.2553 24.9066 38.4949 25.2982 38.5908 25.7878C38.6866 26.2774 38.6067 26.7344 38.3512 27.1587L34.8053 33.4253C34.5498 33.8496 34.1904 34.1434 33.7272 34.3066C33.264 34.4698 32.8088 34.4535 32.3616 34.2576L28.2887 32.4951C27.9373 32.7562 27.5699 33.001 27.1866 33.2295C26.8033 33.458 26.4199 33.6538 26.0366 33.817L25.4616 38.3701C25.3977 38.8597 25.1901 39.2677 24.8387 39.5941C24.4873 39.9205 24.072 40.0837 23.5928 40.0837H16.4053ZM20.0949 27.3545C21.9477 27.3545 23.529 26.6854 24.8387 25.3472C26.1484 24.009 26.8033 22.3934 26.8033 20.5003C26.8033 18.6073 26.1484 16.9916 24.8387 15.6535C23.529 14.3153 21.9477 13.6462 20.0949 13.6462C18.2102 13.6462 16.621 14.3153 15.3272 15.6535C14.0335 16.9916 13.3866 18.6073 13.3866 20.5003C13.3866 22.3934 14.0335 24.009 15.3272 25.3472C16.621 26.6854 18.2102 27.3545 20.0949 27.3545Z" fill="#D3D5D4"/>
</g>
</g>
</svg>
