<svg width="45" height="36" viewBox="0 0 45 36" fill="none" xmlns="http://www.w3.org/2000/svg">
<path id="Vector" d="M43.875 14.625H39.375V10.125C39.375 9.50625 38.8688 9 38.25 9H36C35.3812 9 34.875 9.50625 34.875 10.125V14.625H30.375C29.7562 14.625 29.25 15.1312 29.25 15.75V18C29.25 18.6188 29.7562 19.125 30.375 19.125H34.875V23.625C34.875 24.2438 35.3812 24.75 36 24.75H38.25C38.8688 24.75 39.375 24.2438 39.375 23.625V19.125H43.875C44.4938 19.125 45 18.6188 45 18V15.75C45 15.1312 44.4938 14.625 43.875 14.625ZM15.75 18C20.7211 18 24.75 13.9711 24.75 9C24.75 4.02891 20.7211 0 15.75 0C10.7789 0 6.75 4.02891 6.75 9C6.75 13.9711 10.7789 18 15.75 18ZM22.05 20.25H20.8758C19.3148 20.9672 17.5781 21.375 15.75 21.375C13.9219 21.375 12.1922 20.9672 10.6242 20.25H9.45C4.23281 20.25 0 24.4828 0 29.7V32.625C0 34.4883 1.51172 36 3.375 36H28.125C29.9883 36 31.5 34.4883 31.5 32.625V29.7C31.5 24.4828 27.2672 20.25 22.05 20.25Z" fill="#D3D5D4"/>
</svg>
