<svg xmlns="http://www.w3.org/2000/svg" viewBox="0 0 426.58 435.02"><title>allset</title><g id="Layer_2" data-name="Layer 2"><g id="Background_Complete" data-name="Background Complete"><path d="M19.15,34.14H184V249.63H19.15Zm160.53,4.35H23.5v206.8H179.68Z" style="fill:#ebebeb"/><rect x="101.11" y="39.62" width="4.35" height="207.84" style="fill:#ebebeb"/><rect x="15.21" y="42.93" width="172.77" height="6.05" transform="translate(203.18 91.91) rotate(180)" style="fill:#ebebeb"/><rect x="15.21" y="49.74" width="172.77" height="6.05" transform="translate(203.18 105.53) rotate(180)" style="fill:#ebebeb"/><rect x="15.21" y="56.55" width="172.77" height="6.05" transform="translate(203.18 119.15) rotate(180)" style="fill:#ebebeb"/><rect x="15.21" y="63.36" width="172.77" height="6.05" transform="translate(203.18 132.78) rotate(180)" style="fill:#ebebeb"/><rect x="15.21" y="70.17" width="172.77" height="6.05" transform="translate(203.18 146.4) rotate(180)" style="fill:#ebebeb"/><rect x="15.21" y="76.98" width="172.77" height="6.05" transform="translate(203.18 160.02) rotate(180)" style="fill:#ebebeb"/><rect x="15.21" y="83.79" width="172.77" height="6.05" transform="translate(203.18 173.64) rotate(180)" style="fill:#ebebeb"/><rect x="15.21" y="90.61" width="172.77" height="6.05" transform="translate(203.18 187.27) rotate(180)" style="fill:#ebebeb"/><rect x="15.21" y="97.42" width="172.77" height="6.05" transform="translate(203.18 200.89) rotate(180)" style="fill:#ebebeb"/><rect x="28.12" y="41.7" width="1.09" height="139.55" style="fill:#263238"/><polygon points="26.73 186.31 30.59 186.31 29.62 180.77 27.7 180.77 26.73 186.31" style="fill:#263238"/><rect x="24.2" y="41.7" width="1.09" height="201.88" style="fill:#263238"/><polygon points="22.82 247.66 26.68 247.66 25.71 242.11 23.78 242.11 22.82 247.66" style="fill:#263238"/><rect x="8.46" y="33.29" width="186.26" height="12.67" transform="translate(203.18 79.24) rotate(180)" style="fill:#dbdbdb"/><rect x="378.08" y="287.84" width="26.48" height="11.19" transform="translate(782.64 586.88) rotate(180)" style="fill:#ebebeb"/><rect x="392.85" y="301.95" width="26.48" height="11.19" transform="translate(812.19 615.1) rotate(180)" style="fill:#ebebeb"/><rect x="363.31" y="301.95" width="26.48" height="11.19" transform="translate(753.1 615.1) rotate(180)" style="fill:#ebebeb"/><rect x="22.02" y="301.95" width="26.48" height="11.19" transform="translate(70.51 615.1) rotate(180)" style="fill:#ebebeb"/><rect x="22.02" width="26.48" height="11.19" transform="translate(70.51 11.19) rotate(180)" style="fill:#ebebeb"/><rect x="7.24" y="14.11" width="26.48" height="11.19" transform="translate(40.97 39.41) rotate(180)" style="fill:#ebebeb"/><rect x="392.85" y="0.01" width="26.48" height="11.19" transform="translate(812.19 11.21) rotate(180)" style="fill:#ebebeb"/><rect x="223.02" y="86.26" width="26.48" height="11.19" style="fill:#ebebeb"/><rect x="208.25" y="72.15" width="26.48" height="11.19" style="fill:#ebebeb"/></g><g id="Floor"><polygon points="0 373.33 53.32 373.09 106.64 373 213.29 372.83 319.93 373 373.26 373.09 426.58 373.33 373.26 373.58 319.93 373.67 213.29 373.83 106.64 373.67 53.32 373.58 0 373.33" style="fill:#263238"/></g><g id="Shadow"><ellipse cx="125.46" cy="415.53" rx="125.46" ry="19.49" style="fill:#ebebeb"/><ellipse cx="373.96" cy="415.53" rx="49.2" ry="12.54" style="fill:#ebebeb"/></g><g id="Cheklist"><polygon points="369.53 393.05 117.98 393.05 141.35 58.93 392.89 58.93 369.53 393.05" style="fill:#04489d"/><g style="opacity:0.1"><polygon points="369.53 393.05 117.98 393.05 141.35 58.93 392.89 58.93 369.53 393.05"/></g><polygon points="363.37 393.05 111.82 393.05 135.19 58.93 386.73 58.93 363.37 393.05" style="fill:#04489d"/><polygon points="351.92 373.27 129.68 376.09 146.89 75.09 369.13 72.27 351.92 373.27" style="fill:#ebebeb"/><polygon points="346.47 377.05 124.8 372.26 152.34 71.31 374.01 76.1 346.47 377.05" style="fill:#dbdbdb"/><polygon points="349.91 374.69 127.85 374.69 148.9 73.67 370.96 73.67 349.91 374.69" style="fill:#fff"/><polygon points="195.21 168.61 173.04 168.61 174.59 146.44 196.76 146.44 195.21 168.61" style="fill:#ebebeb"/><polygon points="280.33 149.69 208.5 149.69 208.73 146.44 280.56 146.44 280.33 149.69" style="fill:#263238"/><polygon points="334.43 156 208.06 156 208.29 152.75 334.65 152.75 334.43 156" style="fill:#ebebeb"/><polygon points="333.99 162.31 207.62 162.31 207.85 159.06 334.21 159.06 333.99 162.31" style="fill:#ebebeb"/><polygon points="333.54 168.61 207.18 168.61 207.41 165.36 333.77 165.36 333.54 168.61" style="fill:#ebebeb"/><path d="M175.53,156.38c.77.68,1.5,1.39,2.22,2.11s1.41,1.46,2.12,2.19c1.39,1.47,2.72,3,4,4.53l-2.56.16a112,112,0,0,1,7.75-12.11c1.43-1.93,2.92-3.83,4.5-5.66a57.57,57.57,0,0,1,5.1-5.28,55.74,55.74,0,0,1-2.94,6.64c-1.09,2.15-2.28,4.23-3.54,6.27A109.84,109.84,0,0,1,183.89,167l-1.52,1.87-1-1.7c-1.05-1.73-2.08-3.48-3.05-5.27-.48-.9-1-1.79-1.43-2.71S175.94,157.33,175.53,156.38Z" style="fill:#04489d"/><polygon points="192.31 210.07 170.14 210.07 171.69 187.9 193.86 187.9 192.31 210.07" style="fill:#ebebeb"/><polygon points="277.43 191.15 205.6 191.15 205.83 187.9 277.66 187.9 277.43 191.15" style="fill:#263238"/><polygon points="331.53 197.46 205.16 197.46 205.39 194.21 331.75 194.21 331.53 197.46" style="fill:#ebebeb"/><polygon points="331.09 203.76 204.72 203.76 204.95 200.51 331.31 200.51 331.09 203.76" style="fill:#ebebeb"/><polygon points="330.64 210.07 204.28 210.07 204.51 206.82 330.87 206.82 330.64 210.07" style="fill:#ebebeb"/><path d="M172.63,197.83c.77.69,1.5,1.4,2.22,2.12s1.41,1.46,2.12,2.18c1.39,1.48,2.72,3,4,4.54l-2.55.16a108.1,108.1,0,0,1,7.75-12.11c1.42-1.94,2.91-3.83,4.49-5.66a60.4,60.4,0,0,1,5.1-5.29,55.12,55.12,0,0,1-2.93,6.65c-1.1,2.14-2.29,4.23-3.55,6.27A110.86,110.86,0,0,1,181,208.43l-1.52,1.86-1-1.7c-1.05-1.73-2.08-3.47-3.05-5.26-.48-.9-1-1.79-1.43-2.71S173,198.79,172.63,197.83Z" style="fill:#04489d"/><polygon points="189.41 251.53 167.24 251.53 168.79 229.36 190.96 229.36 189.41 251.53" style="fill:#ebebeb"/><polygon points="274.53 232.6 202.7 232.6 202.93 229.36 274.76 229.36 274.53 232.6" style="fill:#263238"/><polygon points="328.63 238.91 202.26 238.91 202.49 235.66 328.86 235.66 328.63 238.91" style="fill:#ebebeb"/><polygon points="328.19 245.22 201.82 245.22 202.05 241.97 328.41 241.97 328.19 245.22" style="fill:#ebebeb"/><polygon points="327.75 251.53 201.38 251.53 201.61 248.28 327.97 248.28 327.75 251.53" style="fill:#ebebeb"/><path d="M169.73,239.29c.77.68,1.5,1.39,2.22,2.11s1.41,1.46,2.12,2.19c1.39,1.48,2.72,3,4,4.53l-2.55.16a108.9,108.9,0,0,1,7.75-12.1c1.42-1.94,2.91-3.83,4.49-5.67a58.93,58.93,0,0,1,5.1-5.28,56.55,56.55,0,0,1-2.93,6.65c-1.1,2.14-2.29,4.22-3.55,6.26a111,111,0,0,1-8.32,11.75l-1.52,1.86-1-1.7c-1.06-1.73-2.09-3.48-3.06-5.26-.47-.91-1-1.79-1.43-2.71S170.14,240.24,169.73,239.29Z" style="fill:#04489d"/><polygon points="186.51 292.98 164.34 292.98 165.89 270.81 188.06 270.81 186.51 292.98" style="fill:#ebebeb"/><polygon points="271.63 274.06 199.8 274.06 200.03 270.81 271.86 270.81 271.63 274.06" style="fill:#263238"/><polygon points="325.73 280.37 199.36 280.37 199.59 277.12 325.96 277.12 325.73 280.37" style="fill:#ebebeb"/><polygon points="325.29 286.68 198.92 286.68 199.15 283.43 325.51 283.43 325.29 286.68" style="fill:#ebebeb"/><polygon points="324.85 292.98 198.48 292.98 198.71 289.73 325.07 289.73 324.85 292.98" style="fill:#ebebeb"/><polygon points="183.61 334.44 161.44 334.44 162.99 312.27 185.16 312.27 183.61 334.44" style="fill:#ebebeb"/><polygon points="268.73 315.52 196.91 315.52 197.13 312.27 268.96 312.27 268.73 315.52" style="fill:#263238"/><polygon points="322.83 321.82 196.46 321.82 196.69 318.58 323.06 318.58 322.83 321.82" style="fill:#ebebeb"/><polygon points="322.39 328.13 196.02 328.13 196.25 324.88 322.62 324.88 322.39 328.13" style="fill:#ebebeb"/><polygon points="321.95 334.44 195.58 334.44 195.81 331.19 322.18 331.19 321.95 334.44" style="fill:#ebebeb"/><path d="M218.61,108.86a5.57,5.57,0,0,1,3.53,1.23.38.38,0,0,1,0,.56.37.37,0,0,1-.55.08,4.77,4.77,0,0,0-3.06-1.08,5.4,5.4,0,0,0-5.38,4.92,4.56,4.56,0,0,0,4.7,4.87,5,5,0,0,0,3.18-1.09.37.37,0,0,1,.55.1.39.39,0,0,1-.08.56,6.34,6.34,0,0,1-3.71,1.22,5.29,5.29,0,0,1-5.43-5.66A6.29,6.29,0,0,1,218.61,108.86Z" style="fill:#263238"/><path d="M231.73,115H226l-.34,4.83a.43.43,0,0,1-.43.39.36.36,0,0,1-.35-.39l.73-10.44A.42.42,0,0,1,226,109a.36.36,0,0,1,.37.38l-.34,4.84h5.76l.34-4.84a.44.44,0,0,1,.41-.38.37.37,0,0,1,.38.38l-.73,10.44a.44.44,0,0,1-.43.39.37.37,0,0,1-.36-.39Z" style="fill:#263238"/><path d="M236.92,109.4a.42.42,0,0,1,.41-.38h5.76a.35.35,0,0,1,.36.38.41.41,0,0,1-.41.4h-5.36l-.31,4.44h4.69a.36.36,0,0,1,.35.4.41.41,0,0,1-.41.38h-4.69l-.31,4.42h5.36a.35.35,0,0,1,.36.4.42.42,0,0,1-.41.39h-5.79a.36.36,0,0,1-.33-.39Z" style="fill:#263238"/><path d="M251.78,108.86a5.61,5.61,0,0,1,3.53,1.23.39.39,0,0,1,0,.56.37.37,0,0,1-.55.08,4.79,4.79,0,0,0-3.06-1.08,5.42,5.42,0,0,0-5.39,4.92,4.56,4.56,0,0,0,4.71,4.87,5,5,0,0,0,3.18-1.09.37.37,0,0,1,.55.1.38.38,0,0,1-.09.56,6.31,6.31,0,0,1-3.7,1.22,5.28,5.28,0,0,1-5.43-5.66A6.28,6.28,0,0,1,251.78,108.86Z" style="fill:#263238"/><path d="M258.74,109.45a.43.43,0,0,1,.41-.4.36.36,0,0,1,.37.4l-.45,6.49,7.25-6.78a.38.38,0,1,1,.5.57L262.23,114l4,5.58a.43.43,0,0,1-.11.56.4.4,0,0,1-.26.08.32.32,0,0,1-.28-.15l-3.95-5.51L259,117l-.19,2.8a.43.43,0,0,1-.43.39.37.37,0,0,1-.36-.39Z" style="fill:#263238"/><path d="M269.84,120.23h0a.37.37,0,0,1-.36-.39l.73-10.44a.44.44,0,0,1,.41-.38.37.37,0,0,1,.38.38l-.7,10h5.36a.37.37,0,0,1,.37.4.43.43,0,0,1-.43.39Z" style="fill:#263238"/><path d="M279.38,109.4a.44.44,0,0,1,.41-.38.37.37,0,0,1,.38.38l-.73,10.44a.44.44,0,0,1-.43.39.37.37,0,0,1-.36-.39Z" style="fill:#263238"/><path d="M283,118.13a.35.35,0,0,1,.5,0,5.69,5.69,0,0,0,3.58,1.44,4.44,4.44,0,0,0,2.52-.74,2.24,2.24,0,0,0,1.07-1.66,1.64,1.64,0,0,0-.8-1.54,7,7,0,0,0-2.53-.91h0a6.65,6.65,0,0,1-2.58-.94,2.13,2.13,0,0,1-1-2,2.84,2.84,0,0,1,1.31-2.09,4.81,4.81,0,0,1,2.76-.82,5.75,5.75,0,0,1,3.37,1.3.35.35,0,0,1,.06.49.36.36,0,0,1-.49.1,5.14,5.14,0,0,0-3-1.18,4.22,4.22,0,0,0-2.33.67,2.11,2.11,0,0,0-1,1.53,1.49,1.49,0,0,0,.74,1.36,5.92,5.92,0,0,0,2.34.85h0a7.11,7.11,0,0,1,2.78,1,2.3,2.3,0,0,1,1.08,2.11,3,3,0,0,1-1.42,2.24,5.24,5.24,0,0,1-2.94.88,6.48,6.48,0,0,1-4-1.62A.37.37,0,0,1,283,118.13Z" style="fill:#263238"/><path d="M297.45,109.8h-3.37a.36.36,0,0,1-.36-.4.42.42,0,0,1,.41-.38h7.52a.36.36,0,0,1,.36.38.42.42,0,0,1-.41.4h-3.38l-.7,10a.43.43,0,0,1-.41.39.37.37,0,0,1-.36-.39Z" style="fill:#263238"/><polygon points="313.6 86.08 204.53 86.08 206.85 52.83 315.92 52.83 313.6 86.08" style="fill:#c7c7c7"/><path d="M296,34.65H228.32L224,52.83h74.69ZM261.74,47.73a3.67,3.67,0,0,1-3.71-4,4.35,4.35,0,0,1,4.27-4,3.67,3.67,0,0,1,3.71,4A4.33,4.33,0,0,1,261.74,47.73Z" style="fill:#c7c7c7"/><polygon points="298.73 52.83 224.04 52.83 225 48.76 298.12 48.76 298.73 52.83" style="fill:#a6a6a6"/></g><g id="Character"><path d="M88.22,151.74c1.49,11,9.72,37.26,15.86,38.93,5.72,1.55,30.86-5.94,34.09-10.93,1.74-2.67,8.59-27.19,5.52-25.73-3.88,1.85-32.34,16.25-33.51,16-2.47-.62-7.29-10.36-11.46-15.8C89.64,142.29,87.53,146.58,88.22,151.74Z" style="fill:#774442"/><path d="M105.4,162.71,92.51,174.52S88,157.64,87.43,149.84,93.31,142.91,105.4,162.71Z" style="fill:#263238"/><path d="M52.6,274.64S39,296.21,25,285.73s3-29.58,3-29.58Z" style="fill:#dd6a57"/><rect x="78.19" y="104.77" width="30.78" height="179.42" transform="translate(51.56 406.17) rotate(-143.08)" style="fill:#04489d"/><rect x="78.19" y="104.77" width="30.78" height="179.42" transform="translate(51.56 406.17) rotate(-143.08)" style="opacity:0.1"/><rect x="23.28" y="260.56" width="35.94" height="7.13" transform="translate(-84.44 500.05) rotate(-143.08)" style="fill:#37474f"/><rect x="28.02" y="254.25" width="35.94" height="7.13" transform="translate(-72.13 491.56) rotate(-143.08)" style="fill:#37474f"/><path d="M135.15,113.51l22.56-10.75,7.43-3.57-1.31,8.17-4,24.66-5.18,1.71s.26-5.31.25-5.41l-5.18,1.7s.27-5.3.25-5.4l-5.12,1.74s.21-5.35.2-5.44l-5.13,1.74s.21-5.35.2-5.45L135,119S135.16,113.61,135.15,113.51Z" style="fill:#ebebeb"/><polygon points="157.72 102.76 165.14 99.19 163.83 107.36 157.72 102.76" style="fill:#37474f"/><g style="opacity:0.1"><path d="M62.62,249.09q10-13.83,20.21-27.53l20.42-27.37L123.85,167l10.37-13.56,10.45-13.51-10.06,13.8-10.14,13.73-20.42,27.37L83.44,222C76.54,231.07,69.62,240.12,62.62,249.09Z"/><path d="M55.79,244.78c6.67-9.23,13.43-18.38,20.2-27.53l20.42-27.37L117,162.65l10.37-13.57,10.45-13.5-10.06,13.8-10.14,13.73L97.21,190.48l-20.6,27.23C69.7,226.76,62.79,235.8,55.79,244.78Z"/><path d="M49,240.46q10-13.83,20.21-27.53l20.42-27.37,20.61-27.23,10.37-13.56L131,131.26,121,145.06,110.8,158.79,90.38,186.16,69.77,213.39C62.87,222.44,56,231.49,49,240.46Z"/></g><path d="M146.14,153.13c.36,3.82,2.78,9.28,2.13,12.06a3.26,3.26,0,0,1-2.88,2.62s2.17,2.29,1.17,4.72c-.52,1.24-3,1.51-3,1.51a3.91,3.91,0,0,1,.63,4c-.81,1.67-3.14,1.69-3.14,1.69s.74,2.58-.64,4c-2.8,2.92-17.82-2.54-18.13-8.92-.14-3,3.45-1.44,3.45-1.44s-4.64-3.45-3.59-6.57,5.6-.86,5.6-.86-4.47-3.38-3.06-6.51,5.64-.21,5.64-.21-2.52-3.48-.89-5.63c2.69-3.55,7.19,3.78,10.77,4.2L144,153Z" style="fill:#774442"/><path d="M147.43,159c0-3.64,5.39-6.16,5.86-9.66.65-4.72-5.84-2.22-9.25,3.74l-1.83,5.09Z" style="fill:#774442"/><path d="M140.72,179.81c.05,0,0,.09,0,.08a27.68,27.68,0,0,1-15.14-6.55c-.13-.12,0-.38.17-.28A57.25,57.25,0,0,0,140.72,179.81Z" style="fill:#263238"/><path d="M143.66,174.1c.06,0,0,.12,0,.11A26,26,0,0,1,127.55,166c-.14-.16-.1-.45.07-.27C130.63,168.72,138.67,172.76,143.66,174.1Z" style="fill:#263238"/><path d="M130.16,158.81c4.16,4.41,9.32,7,15,9,.07,0,0,.13,0,.12-3-.19-6.53-1.81-9.14-3.3a15.93,15.93,0,0,1-6-5.67C130,158.86,130.07,158.71,130.16,158.81Z" style="fill:#263238"/><path d="M145,414c-1.92.64-56.77.48-58.86-.84-.79-.5-1.24-8.5-1.5-18.16,0-2.09-.1-4.24-.13-6.44,0-2.59-.08-5.22-.09-7.77-.07-11.46.09-21.54.09-21.54h35.71l0,21.54v7.77L120,395s21,9.45,23.1,11.16S146.91,413.38,145,414Z" style="fill:#774442"/><path d="M145,414c-1.92.64-56.77.48-58.86-.84-.79-.5-1.24-8.5-1.5-18.16,0-2.09-.1-4.24-.13-6.44,0-2.59-.08-5.22-.09-7.77H120.2v7.77L120,395s21,9.45,23.1,11.16S146.91,413.38,145,414Z" style="fill:#fff"/><path d="M145.16,414.09c-1.25.41-24.61.49-41.62.14-3.94-.08-7.54-.19-10.44-.32-4-.18-6.69-.4-7.12-.68-1-.62-1.43-12.35-1.65-24.73h35.89L120,395s21.09,9.51,23.24,11.22S147.09,413.44,145.16,414.09Z" style="fill:#04489d"/><path d="M144.38,411.88c-9.25-.25-46.56-.41-55.72.05-.07,0-.07.05,0,.05,9.16.46,46.47.3,55.72,0C144.57,412,144.57,411.88,144.38,411.88Z" style="fill:#263238"/><path d="M121.34,392.92c-3.63-.69-8.09-.14-10.87,2.44-.11.1,0,.25.15.22a51.32,51.32,0,0,1,10.71-2.2A.23.23,0,0,0,121.34,392.92Z" style="fill:#263238"/><path d="M124,394.51c-3.63-.69-8.08-.14-10.87,2.44-.11.1,0,.25.15.22A51.45,51.45,0,0,1,124,395,.23.23,0,0,0,124,394.51Z" style="fill:#263238"/><path d="M126.59,396.1c-3.64-.69-8.09-.14-10.88,2.44-.11.1,0,.25.15.22a51.45,51.45,0,0,1,10.71-2.2A.23.23,0,0,0,126.59,396.1Z" style="fill:#263238"/><path d="M129.21,397.69c-3.64-.69-8.09-.14-10.88,2.44-.11.1,0,.25.16.22a51.23,51.23,0,0,1,10.7-2.2A.23.23,0,0,0,129.21,397.69Z" style="fill:#263238"/><path d="M128.09,384.53c-1.43-2-4.09-1.1-5.61.17a19.43,19.43,0,0,0-5.63,8.32c0,.08,0,.12.08.13a.46.46,0,0,0,.57.46c3-1.1,6.36-1.91,8.94-3.91C128,388.54,129.43,386.39,128.09,384.53ZM121.72,391c-1.47.58-3,1.09-4.4,1.72,1.11-1.62,2.13-3.28,3.4-4.79a21,21,0,0,1,1.93-2.08c1.09-1,5.38-3.06,4.73.93C127,389,123.47,390.31,121.72,391Z" style="fill:#263238"/><path d="M107.6,392c3,1.29,6.45,1.24,9.63,1.56a.46.46,0,0,0,.44-.59.1.1,0,0,0,0-.15,19.38,19.38,0,0,0-7.52-6.65c-1.8-.85-4.6-1-5.48,1.23S105.85,391.29,107.6,392ZM106,389.45c-1.63-3.7,3-2.76,4.34-2.08a20.61,20.61,0,0,1,2.39,1.53,55.73,55.73,0,0,1,4.48,3.79c-1.55-.25-3.12-.37-4.68-.57C110.64,391.89,106.87,391.49,106,389.45Z" style="fill:#263238"/><path d="M72.6,207.08s9.65,95.45,9.88,96.66c0,.16.1,2,.19,5,.52,16.43,1.8,67.66,1.8,67.66h39.38s-2.57-60.68-4-74.84c-1.88-18.05-13.8-94.47-13.8-94.47Z" style="fill:#263238"/><path d="M87.17,307.1q-1.82-31-5.47-61.89c-1.39-11.6-3-23.16-4.7-34.72,0-.1-.18-.1-.16,0,3,20.58,5.2,41.32,7.06,62s3.16,41.42,4,62.17c.48,11.76.85,22.4,1.23,34.16a.22.22,0,0,0,.43,0C89,347.88,88.4,328,87.17,307.1Z" style="fill:#455a64"/><path d="M121.14,369.86c-17.94-.56-33.47-.16-34.81-.06-1.11.09-.49.21.06.24,15.23.91,34.16.06,34.76,0A.08.08,0,0,0,121.14,369.86Z" style="fill:#455a64"/><path d="M72.6,207.08s9.65,95.45,9.88,96.66c0,.16.1,2,.19,5l18.56-101.65Z" style="fill:#455a64"/><path d="M85.09,421.8c-2,.49-56.64-3.75-58.63-5.23-.75-.56-.6-8.56-.13-18.22.09-2.09.11-4.25.34-6.43.28-2.73.59-5.47.93-8.1,1.42-11.44,3.07-21,3.07-21l34.61,2.58-2.15,20.69-.88,8.49-.66,6.4S81.8,412,83.8,413.82,87.05,421.31,85.09,421.8Z" style="fill:#774442"/><path d="M85.09,421.8c-2,.49-56.64-3.75-58.63-5.23-.75-.56-.6-8.56-.13-18.22.09-2.09.11-4.25.34-6.43.28-2.73.59-5.47.93-8.1,10.66.74,26,1.7,35.53,2.27l-.88,8.49-.66,6.4S81.8,412,83.8,413.82,87.05,421.31,85.09,421.8Z" style="fill:#fff"/><path d="M85.25,421.89c-2,.49-57-3.77-58.95-5.26-.92-.69-.51-12.42.2-24.78l35.78,2.67L61.62,401S81.94,412,84,413.87,87.22,421.39,85.25,421.89Z" style="fill:#04489d"/><path d="M84.64,419.63c-9.21-.94-46.4-3.87-55.57-4.1-.07,0-.08.05,0,.06,9.1,1.13,46.32,3.75,55.55,4.19C84.82,419.79,84.83,419.65,84.64,419.63Z" style="fill:#263238"/><path d="M63.07,399c-3.57-1-8-.75-11,1.62-.12.09,0,.26.13.23A51.43,51.43,0,0,1,63,399.46.23.23,0,0,0,63.07,399Z" style="fill:#263238"/><path d="M65.57,400.79c-3.58-1-8.06-.75-11,1.62-.11.09,0,.26.14.23a50.69,50.69,0,0,1,10.84-1.39A.23.23,0,0,0,65.57,400.79Z" style="fill:#263238"/><path d="M68.07,402.57c-3.58-1-8.06-.75-11,1.62-.12.1,0,.26.14.23A50.61,50.61,0,0,1,68,403,.24.24,0,0,0,68.07,402.57Z" style="fill:#263238"/><path d="M70.56,404.35c-3.57-1-8.05-.74-11,1.62-.11.1,0,.26.14.23a51.42,51.42,0,0,1,10.84-1.39A.23.23,0,0,0,70.56,404.35Z" style="fill:#263238"/><path d="M70.42,391.14c-1.27-2.08-4-1.4-5.61-.24a19.49,19.49,0,0,0-6.23,7.87.1.1,0,0,0,.08.14c0,.28.21.59.53.5,3.08-.88,6.49-1.43,9.21-3.23C70,395.13,71.63,393.1,70.42,391.14Zm-6.83,6c-1.5.47-3,.86-4.51,1.39A57.85,57.85,0,0,1,62.82,394a21,21,0,0,1,2.08-1.93c1.16-.9,5.59-2.66,4.65,1.27C69,395.5,65.39,396.56,63.59,397.12Z" style="fill:#263238"/><path d="M49.44,397.11c2.89,1.51,6.33,1.71,9.49,2.26.32.06.51-.27.48-.55a.1.1,0,0,0,.06-.14,19.42,19.42,0,0,0-7-7.19c-1.73-1-4.51-1.38-5.56.82S47.75,396.23,49.44,397.11ZM48,394.4c-1.35-3.81,3.24-2.52,4.49-1.75a20.74,20.74,0,0,1,2.27,1.71,57.89,57.89,0,0,1,4.18,4.11c-1.53-.37-3.08-.6-4.63-.92C52.47,397.18,48.74,396.5,48,394.4Z" style="fill:#263238"/><path d="M106,207.08s-1.16,9.72-6.74,16.72c-1.34,1.68-5.43,3.24-7.55,4.79,0,0-7.92,72.77-10.34,81-2.67,9.15-13.13,71.76-13.13,71.76l-41.13-2.88S39.46,317,42.39,301.81c.66-3.4,9.46-67.45,9.27-68.93-2.37-17.63,6.21-25.8,6.21-25.8Z" style="fill:#263238"/><path d="M74.2,208.15a13.16,13.16,0,0,1-4.82,6.92,16.34,16.34,0,0,1-8.75,3c-.53.05-.57.85,0,.85,6.42,0,12.91-4.07,13.85-10.72C74.48,208,74.24,208,74.2,208.15Z" style="fill:#455a64"/><path d="M100,223.51A35.69,35.69,0,0,0,93.39,227c-2.2,1.36-4.24,3-6.37,4.44-.08.05,0,.19.08.13,2.23-1.28,4.55-2.39,6.76-3.72a42.7,42.7,0,0,0,6.26-4.19C100.19,223.62,100.12,223.48,100,223.51Z" style="fill:#455a64"/><path d="M100.93,210.13c-.35,1.47-.77,2.92-1.16,4.38s-.65,2.77-1.08,4.12a7,7,0,0,1-2.1,3.4c-.56.48-1.18.9-1.78,1.33-.32.24-.67.46-1,.7,0-.19.1-.39.14-.59.13-.56.25-1.12.37-1.68.26-1.24.52-2.48.77-3.72.49-2.44,1-4.92,1.57-7.33a.08.08,0,1,0-.15,0c-.72,2.38-1.51,4.74-2.15,7.15-.32,1.18-1.52,7-1.58,7.45s-.12.86-.16,1.29a5.4,5.4,0,0,0-.06,1.33c0,.11.15.09.2,0h0a5.59,5.59,0,0,0,.43-1.27c.13-.41.24-.83.34-1.26l.09-.47c.6-.32,1.16-.76,1.72-1.13s1.22-.79,1.79-1.23a6.57,6.57,0,0,0,2.27-3.21,24,24,0,0,0,.89-4.2c.26-1.67.48-3.35.79-5C101.1,210.07,101,210,100.93,210.13Z" style="fill:#455a64"/><path d="M66.24,374.26c-17.84-2-33.35-2.84-34.69-2.84-1.12,0-.51.16,0,.24,15.11,2.13,34,2.79,34.65,2.76C66.34,374.42,66.34,374.27,66.24,374.26Z" style="fill:#455a64"/><path d="M105,187.16l3.35,27.63s-44.89-.4-56-1.45c0,0,10.3-51.26,22.59-64,6.14-6.37,13.16-5.71,17.54-1.06,1.11,1.18,14.22,19.39,15.48,26.25C109.06,180.61,105,187.16,105,187.16Z" style="fill:#04489d"/><path d="M85.65,164.59a2.18,2.18,0,0,1,1.17-.07,1.14,1.14,0,0,1,.73,1,.88.88,0,0,0,.4.76.93.93,0,0,0,.46.15,5.54,5.54,0,0,1,.56.11,2,2,0,0,1-1.17,0,1.11,1.11,0,0,1-.69-1.05.88.88,0,0,0-.43-.73,1,1,0,0,0-.47-.14Z" style="fill:#fff"/><path d="M95.9,201.23a2.18,2.18,0,0,1,1.17-.06,1.12,1.12,0,0,1,.72,1,.9.9,0,0,0,.4.76,1,1,0,0,0,.47.15,5.3,5.3,0,0,1,.55.1,1.92,1.92,0,0,1-1.17,0,1.15,1.15,0,0,1-.69-1,.85.85,0,0,0-.42-.73,1,1,0,0,0-.48-.14C96.27,201.3,96.08,201.28,95.9,201.23Z" style="fill:#fff"/><path d="M79.36,149.9a1.92,1.92,0,0,1-1.17,0,1.15,1.15,0,0,1-.69-1,.85.85,0,0,0-.42-.73,1,1,0,0,0-.48-.14l-.21,0,.22-.18a1.3,1.3,0,0,1,.61.05,1.12,1.12,0,0,1,.72,1,.9.9,0,0,0,.4.76,1,1,0,0,0,.47.15A5.3,5.3,0,0,1,79.36,149.9Z" style="fill:#fff"/><path d="M71.12,179.92a2.18,2.18,0,0,1,1.17-.06,1.1,1.1,0,0,1,.72,1,.89.89,0,0,0,.41.75.84.84,0,0,0,.46.15c.19,0,.37.06.56.11a2,2,0,0,1-1.17,0,1.11,1.11,0,0,1-.69-1,.88.88,0,0,0-.43-.74,1,1,0,0,0-.47-.13C71.49,180,71.31,180,71.12,179.92Z" style="fill:#fff"/><path d="M94.8,214.62h-.48a1.15,1.15,0,0,1-.1-.48.86.86,0,0,0-.43-.73.93.93,0,0,0-.47-.14,5.3,5.3,0,0,1-.55-.1,2.15,2.15,0,0,1,1.16-.06,1.12,1.12,0,0,1,.73,1A.77.77,0,0,0,94.8,214.62Z" style="fill:#fff"/><path d="M82.23,195.45a2.29,2.29,0,0,1,1.17-.06,1.11,1.11,0,0,1,.72,1,.91.91,0,0,0,.41.76.93.93,0,0,0,.46.15l.55.1a1.92,1.92,0,0,1-1.17,0,1.12,1.12,0,0,1-.68-1,.88.88,0,0,0-.43-.73,1,1,0,0,0-.47-.14A5.54,5.54,0,0,1,82.23,195.45Z" style="fill:#fff"/><path d="M58.08,192.94a2.67,2.67,0,0,1-.94.1c0-.09,0-.18.08-.28a.94.94,0,0,0,.31.07C57.71,192.87,57.9,192.89,58.08,192.94Z" style="fill:#fff"/><path d="M62.3,198.73a2.18,2.18,0,0,1,1.17-.06,1.12,1.12,0,0,1,.72,1,.9.9,0,0,0,.4.76,1,1,0,0,0,.47.15,5.3,5.3,0,0,1,.55.1,1.92,1.92,0,0,1-1.17,0,1.15,1.15,0,0,1-.69-1,.85.85,0,0,0-.42-.73,1,1,0,0,0-.48-.14C62.67,198.8,62.48,198.78,62.3,198.73Z" style="fill:#fff"/><path d="M91.41,180.36a2.15,2.15,0,0,1,1.16-.06,1.12,1.12,0,0,1,.73,1,.9.9,0,0,0,.86.9c.19,0,.37.06.56.11a2,2,0,0,1-1.17,0,1.12,1.12,0,0,1-.69-1,.86.86,0,0,0-.43-.74.93.93,0,0,0-.47-.13C91.78,180.43,91.59,180.41,91.41,180.36Z" style="fill:#fff"/><path d="M79,158.82a2.08,2.08,0,0,1-.78.87,1.12,1.12,0,0,1-1.24-.21.86.86,0,0,0-.82-.25.93.93,0,0,0-.43.22c-.16.1-.3.22-.47.32.21-.31.37-.68.8-.86a1.11,1.11,0,0,1,1.22.25.89.89,0,0,0,.83.22,1,1,0,0,0,.43-.24C78.69,159,78.84,158.92,79,158.82Z" style="fill:#fff"/><path d="M107.72,179.89a2.29,2.29,0,0,1-.78.87,1.12,1.12,0,0,1-1.24-.22.91.91,0,0,0-.82-.25.83.83,0,0,0-.43.23c-.16.1-.31.22-.47.31a2,2,0,0,1,.79-.86,1.13,1.13,0,0,1,1.23.26.86.86,0,0,0,.82.21,1,1,0,0,0,.43-.23C107.41,180.1,107.55,180,107.72,179.89Z" style="fill:#fff"/><path d="M88.3,151.41a2.14,2.14,0,0,1,.06,1.16,1.12,1.12,0,0,1-1,.73.9.9,0,0,0-.9.86c0,.19-.06.37-.11.56a2,2,0,0,1,0-1.17,1.12,1.12,0,0,1,1-.69.91.91,0,0,0,.74-.43.93.93,0,0,0,.13-.47C88.23,151.78,88.25,151.59,88.3,151.41Z" style="fill:#fff"/><path d="M83.89,184a2.18,2.18,0,0,1,.06,1.17,1.11,1.11,0,0,1-1,.72.91.91,0,0,0-.76.41.93.93,0,0,0-.15.46,5.3,5.3,0,0,1-.1.55,2,2,0,0,1,0-1.17,1.13,1.13,0,0,1,1-.68.88.88,0,0,0,.73-.43,1,1,0,0,0,.14-.47C83.82,184.34,83.84,184.16,83.89,184Z" style="fill:#fff"/><path d="M106.84,208.2a2.18,2.18,0,0,1,.06,1.17,1.13,1.13,0,0,1-1,.73.85.85,0,0,0-.75.4.77.77,0,0,0-.15.46c0,.19-.06.37-.11.56a2,2,0,0,1,0-1.17,1.12,1.12,0,0,1,1-.69.88.88,0,0,0,.73-.43,1,1,0,0,0,.14-.47C106.77,208.57,106.79,208.39,106.84,208.2Z" style="fill:#fff"/><path d="M65.94,185.14A2.25,2.25,0,0,1,66,186.3a1.13,1.13,0,0,1-1,.73.9.9,0,0,0-.76.4,1,1,0,0,0-.15.46c0,.19-.06.37-.1.56a1.93,1.93,0,0,1-.05-1.17,1.13,1.13,0,0,1,1-.69.86.86,0,0,0,.73-.43.93.93,0,0,0,.14-.47A5.35,5.35,0,0,1,65.94,185.14Z" style="fill:#fff"/><path d="M74.72,166.29a2.18,2.18,0,0,1,.06,1.17,1.11,1.11,0,0,1-1,.72.9.9,0,0,0-.76.4,1,1,0,0,0-.15.47c0,.18-.06.37-.11.55a2,2,0,0,1,0-1.17,1.14,1.14,0,0,1,1-.69.85.85,0,0,0,.73-.42,1,1,0,0,0,.14-.48A5.3,5.3,0,0,1,74.72,166.29Z" style="fill:#fff"/><path d="M100.42,170.24a2.14,2.14,0,0,1,.06,1.16,1.12,1.12,0,0,1-1,.73.85.85,0,0,0-.75.4.79.79,0,0,0-.15.46c0,.19-.06.37-.11.56a2.1,2.1,0,0,1,0-1.17,1.14,1.14,0,0,1,1-.69.91.91,0,0,0,.74-.43.93.93,0,0,0,.13-.47C100.35,170.61,100.37,170.42,100.42,170.24Z" style="fill:#fff"/><path d="M76.67,203.21a2.18,2.18,0,0,1,.06,1.17,1.12,1.12,0,0,1-1,.73.86.86,0,0,0-.75.4.84.84,0,0,0-.15.46c0,.19-.06.37-.11.56a2,2,0,0,1,0-1.17,1.11,1.11,0,0,1,1-.69.9.9,0,0,0,.74-.43,1,1,0,0,0,.13-.47C76.6,203.58,76.62,203.4,76.67,203.21Z" style="fill:#fff"/><path d="M68.26,208.2a2.29,2.29,0,0,1,.06,1.17,1.13,1.13,0,0,1-1,.73.88.88,0,0,0-.76.4.93.93,0,0,0-.15.46,5.48,5.48,0,0,1-.1.56,1.93,1.93,0,0,1,0-1.17,1.12,1.12,0,0,1,1-.69.88.88,0,0,0,.73-.43,1,1,0,0,0,.14-.47C68.19,208.57,68.21,208.39,68.26,208.2Z" style="fill:#fff"/><path d="M95.69,159.75a2.14,2.14,0,0,1,.78-.87,1.13,1.13,0,0,1,1.24.22.91.91,0,0,0,.82.25.87.87,0,0,0,.43-.23c.16-.1.3-.22.47-.31a2,2,0,0,1-.8.86,1.13,1.13,0,0,1-1.23-.26.86.86,0,0,0-.82-.21,1,1,0,0,0-.43.23C96,159.54,95.85,159.65,95.69,159.75Z" style="fill:#fff"/><path d="M81,174.49a2.14,2.14,0,0,1,.78-.87,1.13,1.13,0,0,1,1.24.22.91.91,0,0,0,.82.25.93.93,0,0,0,.43-.22,4.87,4.87,0,0,1,.47-.32,2,2,0,0,1-.8.86,1.13,1.13,0,0,1-1.23-.26.86.86,0,0,0-.82-.21,1,1,0,0,0-.43.23C81.34,174.28,81.19,174.39,81,174.49Z" style="fill:#fff"/><path d="M70.87,194.49a2.29,2.29,0,0,1,.78-.87,1.12,1.12,0,0,1,1.24.22.92.92,0,0,0,.82.25,1,1,0,0,0,.44-.22c.15-.11.3-.22.46-.32-.21.3-.36.67-.79.86a1.13,1.13,0,0,1-1.23-.26.89.89,0,0,0-.82-.21,1,1,0,0,0-.43.23A4.87,4.87,0,0,1,70.87,194.49Z" style="fill:#fff"/><path d="M79,214.33v0h0Z" style="fill:#fff"/><path d="M94.91,192.44a2.16,2.16,0,0,1,.78-.87,1.1,1.1,0,0,1,1.24.21.9.9,0,0,0,1.25,0l.47-.32a2,2,0,0,1-.79.86,1.14,1.14,0,0,1-1.23-.25.87.87,0,0,0-.82-.22,1,1,0,0,0-.43.24C95.22,192.22,95.08,192.34,94.91,192.44Z" style="fill:#fff"/><path d="M85.69,207a2,2,0,0,1,.78-.87,1.12,1.12,0,0,1,1.24.21.86.86,0,0,0,.82.25.93.93,0,0,0,.43-.22c.16-.1.3-.22.47-.32-.22.31-.37.68-.8.86a1.13,1.13,0,0,1-1.23-.25.87.87,0,0,0-.82-.22,1,1,0,0,0-.43.24C86,206.78,85.85,206.9,85.69,207Z" style="fill:#fff"/><path d="M56.64,204.11c-.21.31-.37.68-.8.86a1.11,1.11,0,0,1-1.22-.25.73.73,0,0,0-.33-.19c0-.13.07-.27.1-.41a1.18,1.18,0,0,1,.53.28.86.86,0,0,0,.82.25.89.89,0,0,0,.43-.22C56.33,204.33,56.47,204.21,56.64,204.11Z" style="fill:#fff"/><path d="M63.07,175a2.24,2.24,0,0,1,.79-.87,1.13,1.13,0,0,1,1.24.22.91.91,0,0,0,.82.25,1,1,0,0,0,.43-.22,5.52,5.52,0,0,1,.47-.32c-.22.3-.37.67-.8.86a1.13,1.13,0,0,1-1.23-.26.86.86,0,0,0-.82-.21,1,1,0,0,0-.43.23A3.88,3.88,0,0,1,63.07,175Z" style="fill:#fff"/><path d="M106.76,201.88c-.44-2.53-.77-4.51-1.13-7s-.75-5.07-1.08-7.62l0-.16.11-.16a19.31,19.31,0,0,0,2.69-6.33,14.07,14.07,0,0,0,.38-3.42,11.36,11.36,0,0,0-.47-3.38,40.05,40.05,0,0,0-2.65-6.51c-1.06-2.12-1.93-3.89-3.11-5.95-.2-.31-.07-.39.11-.13,1.19,1.69,2.49,4,3.51,5.81a35.72,35.72,0,0,1,3,6.52,11.82,11.82,0,0,1,.57,3.63,15.31,15.31,0,0,1-.37,3.64,18.67,18.67,0,0,1-2.93,6.66l.09-.33c.29,2.55.52,5.1.77,7.66.23,2.29.49,4.76.65,7.06C106.9,202.08,106.91,202.81,106.76,201.88Z" style="fill:#263238"/><path d="M103.65,163.25a11.42,11.42,0,0,1,1.19,2.4,11.09,11.09,0,0,1,.38,1.28,5.41,5.41,0,0,1,.18,1.34c-.38-.82-.73-1.62-1-2.45A14.57,14.57,0,0,1,103.65,163.25Z" style="fill:#263238"/><path d="M77.1,155.12c-3.65,5.51-20.9,27.19-21.54,29.27s3.27,6.4,3.23,7.25c-.15,3.46-8.84,24.24-11.92,22-4.06-2.89-18.51-21.11-16.59-30.73s39-33.56,45.11-35.82S80.7,149.68,77.1,155.12Z" style="fill:#774442"/><path d="M63.09,221.13c2.34-2.22-1.61-3.7-1.61-3.7s6.2.77,7.72-2.44-3.36-4.73-3.7-4.85c.33,0,6,.6,7.24-2.78S68.86,203,68.53,203c.32-.06,4.55-.94,4.88-3.72.56-4.78-11.76-3.29-14.86-5.65,0,0,.2-6.21.26-6.4a7,7,0,0,1-3,3.53c-2.52,1.18-4.83,2-5.7,3.45a3.54,3.54,0,0,0,.29,4.2s-3.41.16-4.44,2.8c-.53,1.35,1.17,3.4,1.17,3.4a4.2,4.2,0,0,0-3.49,2.64c-.63,1.92,1.17,3.67,1.17,3.67s-2.5,1.45-2.5,3.61C42.3,218.87,58.08,225.86,63.09,221.13Z" style="fill:#774442"/><path d="M45.06,211.22a.05.05,0,0,0-.06.08,30,30,0,0,0,16.69,6.23c.19,0,.28-.31.07-.35A61.23,61.23,0,0,1,45.06,211.22Z" style="fill:#263238"/><path d="M47,204.58c-.06,0-.11.07-.06.11a28,28,0,0,0,18.62,5.67c.24,0,.43-.27.16-.27C61.21,210.15,51.93,207.27,47,204.58Z" style="fill:#263238"/><path d="M69,202.78c-6.54.32-12.52-1.49-18.4-4.23-.08,0-.12.08-.07.13C53,200.8,57,202.15,60.11,203A17.29,17.29,0,0,0,69,203C69.11,203,69.13,202.77,69,202.78Z" style="fill:#263238"/><path d="M44.64,210.91a4.16,4.16,0,0,1-1.64-4,3.17,3.17,0,0,1,1.25-1.78,5.55,5.55,0,0,1,2.47-.64,4.07,4.07,0,0,1-.81-4.53,3,3,0,0,1,1.77-1.35,9.82,9.82,0,0,1,2.63-.33,3.63,3.63,0,0,1-1.27-3,3.94,3.94,0,0,1,1.94-3,18.85,18.85,0,0,1,4-1.65,9.14,9.14,0,0,0,2-.92,4.14,4.14,0,0,0,1.51-1.87c.06-.13.07,0,0,.11a5,5,0,0,1-.83,1.41,6.48,6.48,0,0,1-1.28,1.17,30,30,0,0,1-3.75,1.8A5.63,5.63,0,0,0,50,194.79a3.31,3.31,0,0,0,.46,3.48.09.09,0,0,1-.07.14,9.91,9.91,0,0,0-2.29.65,3.28,3.28,0,0,0-1.47,1.28,4.29,4.29,0,0,0,.49,4.25,7.15,7.15,0,0,0-2.34,1,3.11,3.11,0,0,0-.95,1.48,3.68,3.68,0,0,0,1,3.74.08.08,0,0,1,0,0h0v0a.08.08,0,0,1,0,.05h0s-.79.5-.84.51,0,0,0,0S44.53,211,44.64,210.91Z" style="fill:#263238"/><path d="M67.74,168.5,52.45,160S68,149.68,75.27,146.71,82.67,150.75,67.74,168.5Z" style="fill:#263238"/><path d="M82.9,143.37c-2.43,1-3.11,2.74-2.35,4.78.84,2.28,7.87,6.74,10.79,5.24,2.52-1.3.34-7.33-1-8.69A7.49,7.49,0,0,0,82.9,143.37Z" style="fill:#263238"/><path d="M81.28,147.61c.37.83,5.6,5.64,9.52,4.68,1.28-.31-.13-7.36-.13-7.36l0-.54.2-7.61L81.25,133l-1.38-.49s.08,2.09.21,4.68c0,.12,0,.24,0,.37s0,.29,0,.43c0,.38,0,.78,0,1.18s0,.59.06.9,0,.62.08.94A46,46,0,0,0,81.28,147.61Z" style="fill:#774442"/><path d="M80.08,137.15a15.25,15.25,0,0,0,10.61,7.24l.2-7.61L81.25,133l-1.38-.49S80,134.56,80.08,137.15Z" style="fill:#263238"/><path d="M99.8,125c1.91,13.23-5.8,15.87-8.65,16.28-2.59.37-11.45,1.3-14.72-11.66s2.28-18,8.16-19.19S97.89,111.78,99.8,125Z" style="fill:#774442"/><path d="M96.32,121.84c-.32,0-.61,0-.92-.06a1.5,1.5,0,0,1-.93-.24.47.47,0,0,1-.08-.58,1.18,1.18,0,0,1,1.11-.44,1.77,1.77,0,0,1,1.16.45A.51.51,0,0,1,96.32,121.84Z" style="fill:#263238"/><path d="M87.41,123.47a8.82,8.82,0,0,0,.86-.31,1.58,1.58,0,0,0,.83-.5.47.47,0,0,0-.09-.57,1.18,1.18,0,0,0-1.19-.11,1.77,1.77,0,0,0-1,.77A.5.5,0,0,0,87.41,123.47Z" style="fill:#263238"/><path d="M90.11,126.43s-.07,0-.06.09c.18.89.24,1.94-.52,2.38,0,0,0,.06,0,0C90.51,128.64,90.42,127.24,90.11,126.43Z" style="fill:#263238"/><path d="M89.15,125.63c-1.46.13-1.09,3,.27,2.92S90.37,125.51,89.15,125.63Z" style="fill:#263238"/><path d="M88.59,125.85c-.23.2-.44.52-.74.59s-.66-.19-.93-.45c0,0,0,0,0,0,.07.56.36,1.11,1,1.11s.88-.54,1-1.12C88.8,125.92,88.69,125.77,88.59,125.85Z" style="fill:#263238"/><path d="M95.05,125.39s.08,0,.08.07c.08.9.33,1.93,1.18,2.13,0,0,0,0,0,0C95.3,127.62,95,126.26,95.05,125.39Z" style="fill:#263238"/><path d="M95.74,124.34c1.44-.28,1.91,2.62.58,2.88S94.54,124.58,95.74,124.34Z" style="fill:#263238"/><path d="M96.38,124.44c.25.11.53.36.8.33s.51-.38.66-.71c0,0,0,0,0,0,.11.55,0,1.16-.5,1.35s-.9-.24-1.12-.77C96.22,124.56,96.28,124.39,96.38,124.44Z" style="fill:#263238"/><path d="M90.89,133.75c.23.2.48.47.81.47a2.36,2.36,0,0,0,1-.31s.06,0,0,0a1.23,1.23,0,0,1-1.11.59,1,1,0,0,1-.78-.74C90.79,133.75,90.85,133.72,90.89,133.75Z" style="fill:#263238"/><path d="M94.2,130s.37,1.32.46,2c0,.06-.14.11-.35.15,0,0,0,0,0,0a3,3,0,0,1-3.09-.71.07.07,0,0,1,.08-.1,4.61,4.61,0,0,0,2.87.4c0-.18-.72-2.24-.62-2.26a5.64,5.64,0,0,1,1.49.12c-.7-2.77-1.85-5.4-2.5-8.18,0-.09.11-.14.16-.06A46.56,46.56,0,0,1,95.74,130C95.84,130.33,94.47,130,94.2,130Z" style="fill:#263238"/><path d="M76.42,128.55c3.14-.21,2.73-5.16,2.73-5.16s3.54-.6,3.35-6.36a8.75,8.75,0,0,0,6.86,3.67c1,.07-2.59-2.31-2.59-2.31s4.39,3.39,11.89,1.39c.53-.14-.71-8.9-6.9-11.18s-12,.52-15.37,4.57c0,0-4.22,2.36-4.39,6.54S75.2,128.64,76.42,128.55Z" style="fill:#263238"/><path d="M88.33,131.58a4.31,4.31,0,1,1,3.85-5.6h0a4.32,4.32,0,0,1-3.85,5.6Zm-.47-8a4.28,4.28,0,0,0-.91.17,3.73,3.73,0,1,0,.91-.17Z" style="fill:#04489d"/><path d="M98.05,129.81c-1.65.09-3.24-1.51-3.63-3.72A5.18,5.18,0,0,1,94.8,123a2.69,2.69,0,0,1,4.52-.8,5.17,5.17,0,0,1,1.42,2.81c.41,2.33-.67,4.49-2.41,4.79Zm-.9-8-.22,0a2.3,2.3,0,0,0-1.62,1.36A4.57,4.57,0,0,0,95,126c.36,2,1.81,3.47,3.24,3.22s2.3-2.11,1.94-4.13a4.58,4.58,0,0,0-1.25-2.49A2.33,2.33,0,0,0,97.15,121.84Z" style="fill:#04489d"/><path d="M92.13,126.49l-.44-.37c.54-.65,1.9-1.64,3.13-.72l-.34.46C93.38,125,92.18,126.43,92.13,126.49Z" style="fill:#04489d"/><path d="M73.43,130.92l-.55-.17c.08-.26.82-2.52,2.05-3s8.87-1,9.2-1l.05.57c-2.22.18-8.17.72-9.06,1S73.63,130.3,73.43,130.92Z" style="fill:#04489d"/><path d="M78.68,130.34s-3.15-4-5-2.85.7,7.06,3,7.76a2.26,2.26,0,0,0,3-1.38Z" style="fill:#774442"/><path d="M74.47,129.17a0,0,0,0,0,0,.06,5.72,5.72,0,0,1,3.15,3.4,1.25,1.25,0,0,0-1.88-.24.05.05,0,0,0,0,.09,1.39,1.39,0,0,1,1.56.39,7,7,0,0,1,.8,1.2c.08.13.33,0,.27-.11l0,0C78.31,131.93,76.61,129.25,74.47,129.17Z" style="fill:#263238"/><path d="M76.67,115c1.89-1.5,5.92-12.06-3.19-16.72s-19.22,7.21-12.43,15.33C65.6,119,72.67,118.15,76.67,115Z" style="fill:#263238"/></g><g id="Plant"><path d="M380.21,328.05c7.18-14.75,19.74-22.33,33.89-18.14s16.35,23.92,5.78,28.91-21.13-9.57-26.71-12.56S380.21,328.05,380.21,328.05Z" style="fill:#04489d"/><path d="M373.26,367.32c0-1.78.11-3.56.17-5.33.13-3.55.25-7.11.38-10.66.24-6.49.94-12.87,3.63-18.85a29.21,29.21,0,0,1,11.38-13.12,23.8,23.8,0,0,1,6-2.58,14,14,0,0,1,7-3.84,28.48,28.48,0,0,1,10-.25c.12,0,.12.2,0,.19a23.76,23.76,0,0,0-9.42.67,19.92,19.92,0,0,0-3.8,1.47,18.89,18.89,0,0,0-2.19,1.39,20.52,20.52,0,0,1,8.65.09,19.88,19.88,0,0,1,3,1,8.57,8.57,0,0,1,2.36-.2,13.78,13.78,0,0,1,3.06.44,23,23,0,0,1,5.82,2.54.09.09,0,0,1-.09.16,21.85,21.85,0,0,0-5.69-2.14,19,19,0,0,0-2.92-.43,14.59,14.59,0,0,0-1.62,0,18.78,18.78,0,0,1,9.15,9.12c.05.11-.12.2-.16.09a17.22,17.22,0,0,0-11.67-9.35c-.31-.08-.63-.12-.94-.18a14.16,14.16,0,0,1,.15,1.43c.09.71.21,1.43.36,2.14a33.94,33.94,0,0,0,1.15,4.32,33,33,0,0,0,1.71,4.18,19.58,19.58,0,0,0,2.4,4c.08.11-.08.23-.15.11-.85-1.33-1.84-2.56-2.62-3.94a29.65,29.65,0,0,1-1.92-4.12,27.17,27.17,0,0,1-1.26-4.42c-.16-.8-.28-1.6-.37-2.4a5.13,5.13,0,0,1-.09-1.46,19.24,19.24,0,0,0-5-.11c.63,3.52,1.3,7.19,3.28,10.25.06.1-.11.19-.17.09a41,41,0,0,1-2.43-5,18.93,18.93,0,0,1-1.21-5.24,23.09,23.09,0,0,0-8.31,2.79,27.47,27.47,0,0,0-11.07,12.1,45.75,45.75,0,0,0-4.1,17.35c-.47,7.54-.57,15.13-1.32,22.64-.05.5-.83.66-.92.11A26.63,26.63,0,0,1,373.26,367.32Z" style="fill:#263238"/><path d="M389.85,318.17a8.62,8.62,0,0,1,1.63-1.5c.59-.49,1.19-1,1.82-1.39a13.66,13.66,0,0,1,4.08-1.89c.12,0,.16.16.05.18a10.93,10.93,0,0,0-4,2c-.6.44-1.17.91-1.74,1.4a9.88,9.88,0,0,1-1.64,1.4A.13.13,0,0,1,389.85,318.17Z" style="fill:#263238"/><path d="M412.76,323.52a43.66,43.66,0,0,1,3.29,4.36,26.58,26.58,0,0,1,2.45,4.85s-.06.08-.09,0a58,58,0,0,0-5.79-9.11C412.54,323.56,412.68,323.43,412.76,323.52Z" style="fill:#263238"/><path d="M397.32,322.06a10.43,10.43,0,0,0,.81,2.67,17.48,17.48,0,0,0,1.36,2.37s0,.1-.08.06a9.66,9.66,0,0,1-2.28-5.05C397.11,322,397.3,321.94,397.32,322.06Z" style="fill:#263238"/><path d="M374.26,328.41s-10.16-12.77-29.77-8.24c-18.65,4.3-27.25,38.49-8.41,42.58s15.52-27.55,22.38-32.92C363.5,325.89,370.74,326.74,374.26,328.41Z" style="fill:#04489d"/><path d="M374.26,328.41s-10.16-12.77-29.77-8.24c-18.65,4.3-27.25,38.49-8.41,42.58s15.52-27.55,22.38-32.92C363.5,325.89,370.74,326.74,374.26,328.41Z" style="opacity:0.1"/><path d="M329.34,338.84a37,37,0,0,1,4-3.1,17.38,17.38,0,0,1,4.31-2.15,26.07,26.07,0,0,1,2.55-3.29,25.47,25.47,0,0,1,5.93-4.72l-.58,0c-1,0-2.08,0-3.12,0a17.55,17.55,0,0,0-6.05,1.51.09.09,0,0,1-.08-.17,27.68,27.68,0,0,1,6-1.82,16.57,16.57,0,0,1,3.06-.26c.55,0,1.11,0,1.65.09l.32,0a26.23,26.23,0,0,1,5.65-2.08c-.18-.05-.36-.11-.55-.15a28.28,28.28,0,0,0-2.9-.48,23.07,23.07,0,0,0-5.87.09c-.12,0-.15-.17,0-.18a36.86,36.86,0,0,1,5.94-.24,24.4,24.4,0,0,1,4.93.64,25.15,25.15,0,0,1,3.58-.41c6.84-.29,14.29,2.27,18.5,7.89s5,13.13,5.78,19.92a151,151,0,0,1,.75,28.51c0,.56-.83.46-.85-.08-.25-8.06-.54-16.12-1.31-24.15-.36-3.72-.75-7.46-1.37-11.14a32.52,32.52,0,0,0-2.71-9.17,16.73,16.73,0,0,0-6.62-7.12,22.4,22.4,0,0,0-9.37-2.89,25.29,25.29,0,0,0-8.8.83,5.89,5.89,0,0,1,.05,1.73,9.88,9.88,0,0,1-.43,2.15,12.24,12.24,0,0,1-.82,1.9c-.37.67-.82,1.27-1.23,1.92-.06.1-.23,0-.15-.11a8.94,8.94,0,0,0,1.52-3.87,14.94,14.94,0,0,0,.23-2c0-.5,0-1,0-1.51a25.91,25.91,0,0,0-8.56,4.52c-.48.38-.94.78-1.39,1.2a9.65,9.65,0,0,1,1.66,2,20.65,20.65,0,0,1,1.75,3.11,26.33,26.33,0,0,1,1.81,6.82c0,.12-.17.16-.18,0a19.6,19.6,0,0,0-2.24-6.47,24.55,24.55,0,0,0-1.73-2.87c-.33-.47-.68-.94-1-1.39-.2-.25-.41-.49-.59-.76a27.08,27.08,0,0,0-5.56,7.84h0a13.58,13.58,0,0,1,2.29,3.31,30.38,30.38,0,0,1,1.84,3.92,65.93,65.93,0,0,1,2.34,8c0,.12-.16.15-.18,0a33.46,33.46,0,0,0-2.79-7.88c-.58-1.23-1.2-2.44-1.85-3.64a29.74,29.74,0,0,1-1.84-3.43,25,25,0,0,0-2.24,9.09c0,.12-.2.1-.19,0a31.71,31.71,0,0,1,4.4-13.94c-1.2.51-2.4,1-3.55,1.63a20,20,0,0,0-4.08,2.86C329.37,339.06,329.25,338.92,329.34,338.84Z" style="fill:#263238"/><path d="M343.72,339.56c.59,1.94,1.33,3.82,1.86,5.78a22.07,22.07,0,0,1,.87,5.76c0,.06-.09.06-.09,0a56.55,56.55,0,0,0-2.81-11.49A.09.09,0,1,1,343.72,339.56Z" style="fill:#263238"/><path d="M331.3,334.76a10.78,10.78,0,0,1,2.59-1.86,18.86,18.86,0,0,1,3-1.06c.11,0,.15.16,0,.18a12,12,0,0,0-2.9,1.19,22.61,22.61,0,0,0-2.66,1.64A.06.06,0,1,1,331.3,334.76Z" style="fill:#263238"/><path d="M364.61,311.36s-1.88-22.95-18.94-30.39c-14.24-6.21-22.4,9.8-12.33,19.6C341.49,308.49,354.55,304.92,364.61,311.36Z" style="fill:#04489d"/><path d="M364.61,311.36s-1.88-22.95-18.94-30.39c-14.24-6.21-22.4,9.8-12.33,19.6C341.49,308.49,354.55,304.92,364.61,311.36Z" style="opacity:0.1"/><path d="M336.5,285.42a70.89,70.89,0,0,1,7.58,3.59,55.17,55.17,0,0,1,5.89,3.91c-.28-.58-.53-1.19-.81-1.76-.45-.88-.92-1.75-1.45-2.59a24.71,24.71,0,0,0-3.76-4.76c-.09-.08.05-.21.14-.13a37.69,37.69,0,0,1,4,4.61,24.89,24.89,0,0,1,1.62,2.59,10.39,10.39,0,0,1,1.15,2.65l.19.13a56.4,56.4,0,0,1,8.15,8c0-.23-.1-.45-.16-.66-.32-1.12-.66-2.23-1-3.34a28.79,28.79,0,0,0-3.08-6.69c-.07-.1.1-.19.16-.09a54.37,54.37,0,0,1,3.57,6.53,25.67,25.67,0,0,1,1.18,3.39,14.59,14.59,0,0,1,.55,2.3c.75.95,1.48,1.9,2.17,2.88,7.32,10.42,11,23,11.88,35.65a112.08,112.08,0,0,1,.19,11.3,71.78,71.78,0,0,1-1,11.35c-.05.23-.42.16-.41-.07.08-3.31.42-6.62.49-9.93s-.05-6.65-.32-10a93.34,93.34,0,0,0-3.72-19.52,70,70,0,0,0-8.68-18.36c-.72-.14-1.43-.33-2.13-.51-.86-.22-1.71-.44-2.56-.68a26,26,0,0,1-4.75-1.74c-.11-.06,0-.22.1-.16a15.16,15.16,0,0,0,4.82,1.66c1.33.27,2.72.44,4.06.75-1.24-1.8-2.56-3.55-4-5.22a29.59,29.59,0,0,1-9.7-.72,39.18,39.18,0,0,1-5-1.55c-1.71-.65-3.33-1.5-5-2.21-.13,0,0-.24.07-.17a28.64,28.64,0,0,0,9.84,3.23,63.08,63.08,0,0,0,9.2.76c-1.21-1.39-2.46-2.75-3.8-4-4.48-4.27-9.8-8.19-15.7-10.23C336.33,285.56,336.39,285.37,336.5,285.42Z" style="fill:#263238"/><path d="M350.38,285.49a25.8,25.8,0,0,1,2.09,3.06,16.52,16.52,0,0,1,1.5,3.55s-.05.07-.07,0c-.56-1.12-1-2.29-1.62-3.41a16.77,16.77,0,0,0-2-3.1C350.17,285.52,350.3,285.39,350.38,285.49Z" style="fill:#263238"/><path d="M334.52,293.13a18.13,18.13,0,0,0,3.49,1.46,33.5,33.5,0,0,0,3.57,1c.05,0,0,.11,0,.1a17.25,17.25,0,0,1-3.69-.81,30.46,30.46,0,0,1-3.45-1.54A.09.09,0,1,1,334.52,293.13Z" style="fill:#263238"/><path d="M377.87,307.23c.1,1,2.58-8.33,17-16.61,13.1-7.52,28.73-27.06,15.89-39.41C400.39,241.24,373.08,263,377.87,307.23Z" style="fill:#04489d"/><path d="M367.94,360.67a253.51,253.51,0,0,1,2.29-29,130.62,130.62,0,0,1,6.09-26c1.07-3,2.3-6,3.63-9a20.61,20.61,0,0,1,.06-3.43c.07-1.47.2-2.93.34-4.4s.28-2.93.46-4.39.48-2.91.54-4.37c0-.13.22-.11.18,0a30.08,30.08,0,0,0-.51,4.64c-.11,1.42-.19,2.83-.24,4.25s0,2.84,0,4.26c0,.51,0,1.06.05,1.6,1.36-2.86,2.81-5.69,4.38-8.43-1-6,.3-12.24,1.52-18.08,0-.12.2-.07.18.05a50.61,50.61,0,0,0-.95,9.27c-.06,2.46.06,4.91.07,7.37.34-.59.69-1.18,1-1.76q2.81-4.59,6-8.95a14.15,14.15,0,0,1,.14-4.26,32.36,32.36,0,0,1,1-4.66q.69-2.3,1.59-4.51c.63-1.51,1.46-3,2.06-4.47a.09.09,0,1,1,.17.08,22.08,22.08,0,0,0-1.8,4.52,41.18,41.18,0,0,0-1.18,4.49c-.31,1.52-.56,3-.77,4.57-.14,1-.23,2.07-.41,3.1A111.18,111.18,0,0,1,404,261.51c.09-.08.21.05.13.14a132.61,132.61,0,0,0-14.66,20c-.16.26-.31.53-.46.8.79-.5,1.7-.89,2.45-1.31q2.1-1.17,4.21-2.31l4.08-2.23c.7-.39,1.39-.8,2.1-1.16a17.14,17.14,0,0,0,2.45-1.35c.11-.09.22.08.11.14-1.39.77-2.62,1.9-4,2.76s-2.72,1.69-4.12,2.47c-2.56,1.43-5.35,2.46-7.87,3.94-1.75,3.06-3.36,6.21-4.85,9.41q2.3-1.47,4.68-2.81c1-.57,2.05-1.13,3.08-1.68a14.79,14.79,0,0,0,2.91-1.75c.09-.08.22.05.13.13a27.35,27.35,0,0,1-5.54,3.86c-1.86,1.08-3.73,2.13-5.65,3.07q-2.32,5.07-4.18,10.32c-6.07,17.19-8.3,35.44-9.37,53.57-.31,5.4-.48,10.8-.55,16.21s.22,10.8.21,16.2c0,.16-.26.2-.28,0-.65-4.8-.77-9.67-1-14.49S367.83,365.58,367.94,360.67Z" style="fill:#263238"/><path d="M394.14,282.85a69.57,69.57,0,0,0,7.67-4,82.69,82.69,0,0,0,7.28-4.62s.08,0,0,.07a60.27,60.27,0,0,1-7,4.89,71.9,71.9,0,0,1-7.92,3.79C394.12,283.06,394,282.89,394.14,282.85Z" style="fill:#263238"/><path d="M390,263.41c.22-.83.48-1.66.77-2.48,0,0-.06-.05,0-.09.18-.47.37-.93.56-1.39,0-.06.05-.12.07-.17s.07-.17.11-.26.05,0,0,0-.09.32-.14.48a2.68,2.68,0,0,1-.07.27,66.75,66.75,0,0,0-2.14,9.79c0,.1-.18.11-.17,0A32.86,32.86,0,0,1,390,263.41Z" style="fill:#263238"/><polygon points="352.7 364.16 353.73 376.36 356.88 413.56 390.63 413.56 393.78 376.36 394.81 364.16 352.7 364.16" style="fill:#455a64"/><polygon points="352.7 364.16 353.73 376.36 393.78 376.36 394.81 364.16 352.7 364.16" style="fill:#263238"/><rect x="349.39" y="359.26" width="48.73" height="11.7" transform="translate(747.5 730.22) rotate(180)" style="fill:#455a64"/></g></g></svg>